PathFileType	4	(X/Y/Z)	RBDS025\RBDS025runT45.trc
DataRate	CameraRate	NumFrames	NumMarkers	Units	OrigDataRate	OrigDataStartFrame	OrigNumFrames
150.000000	150.000000	4	33	mm	150.000000	2250	4500
Frame#	Time	L.ASIS			L.Heel.Bottom			L.Heel.Lateral			L.Heel.Top			L.Iliac.Crest			L.MT1			L.MT5			L.PSIS			L.Shank.Bottom.Lateral			L.Shank.Bottom.Medial			L.Shank.Top.Lateral			L.Shank.Top.Medial			L.Thigh.Bottom.Lateral			L.Thigh.Bottom.Medial			L.Thigh.Top.Lateral			L.Thigh.Top.Medial			R.ASIS			R.ASY			R.Heel.Bottom			R.Heel.Lateral			R.Heel.Top			R.Iliac.Crest			R.MT1			R.MT5			R.PSIS			R.Shank.Bottom.Lateral			R.Shank.Bottom.Medial			R.Shank.Top.Lateral			R.Shank.Top.Medial			R.Thigh.Bottom.Lateral			R.Thigh.Bottom.Medial			R.Thigh.Top.Lateral			R.Thigh.Top.Medial			
		X1	Y1	Z1	X2	Y2	Z2	X3	Y3	Z3	X4	Y4	Z4	X5	Y5	Z5	X6	Y6	Z6	X7	Y7	Z7	X8	Y8	Z8	X9	Y9	Z9	X10	Y10	Z10	X11	Y11	Z11	X12	Y12	Z12	X13	Y13	Z13	X14	Y14	Z14	X15	Y15	Z15	X16	Y16	Z16	X17	Y17	Z17	X18	Y18	Z18	X19	Y19	Z19	X20	Y20	Z20	X21	Y21	Z21	X22	Y22	Z22	X23	Y23	Z23	X24	Y24	Z24	X25	Y25	Z25	X26	Y26	Z26	X27	Y27	Z27	X28	Y28	Z28	X29	Y29	Z29	X30	Y30	Z30	X31	Y31	Z31	X32	Y32	Z32	X33	Y33	Z33	

2251	15	2039.259236353626	876.2811686856419	893.5824456116209	1731.402205843799	48.04877652896693	991.7861363927992	1756.380300321882	69.94730069178881	947.1776406424287	1748.397103905448	89.87139444301334	995.5698639200197	1956.529844558381	949.4727300016983	847.4702536213933	1943.293892027843	34.08807639118611	1000.701408198735	1898.417511419742	44.7934018008749	894.5024175483622	1888.360563195431	948.3228933710309	960.8650957460354	1874.628225227635	161.7802362705169	924.8374053096653	1831.285739273973	193.7304987629142	940.8383914432487	1912.259745924587	228.3028161173317	898.91239258983	1870.092771274017	259.3907840854768	912.7988952706331	2008.120147600442	535.9856067829616	844.7377044906349	1948.69893365326	519.7520459978945	883.0067832483907	1970.264862853417	636.589717317692	829.6577714161879	1915.312006795193	623.1866088835453	869.4689878048428	2062.874723612296	863.2474803479038	1091.55011660523	1645.520721094714	315.5731727478727	1083.28011629343	1625.905839004189	504.1305696982326	1047.805908450797	1643.459468605653	479.7067767852985	1092.367738084308	1667.371566729413	486.252296988359	1049.952350479603	2015.632540796528	927.4064849603394	1141.637518908258	1597.122260061535	291.1924915122725	1041.91391779939	1596.68576663206	336.1448811369459	1144.221027403262	1902.343231046187	936.6063648074493	1062.258531483978	1770.569660878668	429.2149129404243	1118.356388194803	1773.241776787804	467.6802013470548	1084.230050243238	1854.836814389574	434.5509173324567	1127.958668108635	1853.262376138476	474.876251432839	1093.266552360275	2044.044048640755	505.7987706720107	1155.805121345323	1985.299605373415	488.6926957837625	1119.565688943532	2005.230770502789	608.6408812094587	1170.735728627867	1947.207545557398	590.4789721719106	1139.556909144683	
2252	15.00666666666667	2038.467363032025	877.5249023335784	893.2819895147966	1701.572928821208	52.99273036418826	991.6473568922867	1727.011329308974	73.84235281627426	946.8051733323479	1719.315721416397	94.58260226594014	994.9046053391678	1956.918198847807	951.864271713674	847.1453175208474	1912.425650576891	33.88086871932369	1000.872148553282	1868.259859877855	44.70840985624329	894.4871135205359	1888.319535239286	951.1850371098235	960.2820884595257	1847.545065475317	164.0779420453626	924.6125529598105	1804.972975553294	197.1260271528033	940.5240582028995	1886.900260909817	229.6243391808341	898.9081858806858	1845.418466663551	261.7566288545604	912.6018997234107	1994.148443479817	535.2031530812699	845.5821997481113	1933.353908386794	521.6059824121386	882.8575979037198	1960.892884700206	637.4241600432745	830.2296218856402	1904.936037420292	626.584396546365	869.4563248319594	2062.278864996084	866.7110273984296	1091.568317489411	1671.557256945508	300.8239637380867	1082.194598879091	1638.355634944716	487.6662354214612	1048.371757448596	1657.710823462003	464.1456503494038	1092.763422148151	1680.830233287096	472.7552517635603	1050.289439777515	2012.99347289416	930.5575542138137	1141.956620493513	1624.796762966765	273.4158516500494	1040.762462933624	1621.472567725334	317.1586202874523	1143.43816507328	1901.772214818189	939.8117735693949	1061.781708391685	1788.470192836486	421.4011191255458	1117.992343483317	1788.92698127875	460.1081863761691	1084.083564117732	1872.211556545932	431.395706242486	1127.55662829519	1868.322496119697	471.7527196378978	1093.081466933048	2058.445388210271	513.9032508031868	1155.958884773427	2000.80837340287	493.7406277560119	1119.401512249132	2014.491575484657	614.6470063366125	1170.705234712318	1957.333610585054	593.3158959023251	1139.637633803285	
2253	15.01333333333333	2038.08666552405	879.1899978260197	892.9642934693106	1672.110016188152	59.04443629701723	991.4509710158078	1698.042677066779	78.53237614894759	946.3210103447104	1690.843917129067	100.2724994548404	994.0607477904003	1958.039029297878	954.8743297369839	847.0570056837468	1881.558375765529	33.53964936876977	1001.059543973098	1838.164108587444	44.51945291351574	894.3988109396248	1888.696602073041	954.3892320153072	959.8414281283956	1820.668601033966	167.2165303742028	924.0256667329728	1778.863744280444	201.1814981310641	940.0698037430594	1861.492571419787	231.914856443713	898.5404584027791	1820.658770230823	264.9356551141327	912.2189856061827	1979.989763076827	535.4558564161413	846.1976992024132	1917.941797210493	524.6000089190497	882.4693311900219	1951.536145249338	639.1245614670304	830.6833269572724	1894.658151327618	630.9320904673754	869.2946555011681	2062.094901071033	870.6777965770665	1091.488303269209	1698.304151125882	285.5516066409484	1081.270529519369	1650.761572320088	469.3030897239835	1048.407418916003	1671.889797946948	447.0859362546253	1092.708501238446	1694.107424370995	457.7370506521311	1050.179679304035	2011.194277192595	934.2912772729583	1142.247151531959	1653.7754003808	254.8884938776631	1039.692417196895	1647.15919647791	297.4921550082513	1142.58403684516	1901.647583984364	943.5329012696953	1061.480524311296	1806.032449450979	413.1591215105029	1117.425748541492	1804.022459941909	451.944657557692	1083.706359593178	1888.871903636326	428.3629349113459	1127.019051318146	1882.435438024273	468.5327870984929	1092.700690440027	2071.964805590052	523.1449988615092	1155.9819904668	2015.579774905904	500.2441117376061	1118.947447440247	2023.226078825382	621.601938182583	1170.700380348459	1967.08776958086	597.4038981680521	1139.50724370975	
2254	15.02	2038.163896828977	881.2296441832625	892.6709336783175	1643.274003221022	66.29266396382044	991.1747138073541	1669.6906795814	84.09470554624002	945.7036519486859	1663.237669345067	106.9793580739992	993.0141296258794	1959.885862033217	958.4070826899625	847.1993061383264	1850.801658563468	33.16257469976437	1001.203401737153	1808.193202912753	44.31681890404042	894.2075055010705	1889.515765584562	957.8663808942267	959.5293847776343	1794.169493632111	171.2717627821012	923.0041762434397	1753.146491233888	205.9508390619899	939.4593362910662	1836.198877971089	235.2780287792548	897.7504526515243	1795.997090751817	269.0141250445607	911.6506131833553	1965.763918142914	536.8117150081363	846.5200232233823	1902.641283274999	528.7921851839285	881.8402614653323	1942.286405269163	641.7238258001964	830.9812228247565	1884.61251413594	636.2424070301761	868.988898530046	2062.32248440939	875.1224353061599	1091.327213397235	1725.851403182911	269.9566366673466	1080.513709287639	1663.485284702192	449.092070219743	1047.907884294548	1686.301139938332	428.5756727313188	1092.189244541129	1707.504804050054	441.2138964434216	1049.60284368236	2010.312643386195	938.6613342970194	1142.515704564515	1684.174430195093	235.9172722909722	1038.742194000601	1673.906391422953	277.3890709937106	1141.684677837829	1901.968198293032	947.7247974478892	1061.341827734011	1823.37065990627	404.4665999011356	1116.640558953347	1818.694047974663	443.1171519022158	1083.065186772819	1904.860798970357	425.322928910438	1126.325043036532	1895.703885637562	465.0406996817269	1092.089803584235	2084.490483133984	533.2475848247898	1155.876157131943	2029.427681463715	507.9689528453744	1118.243346403928	2031.385277779095	629.3018714742778	1170.747541434374	1976.362917833479	602.5975297161986	1139.201813386819	
